<svg width="300" height="400" viewBox="0 0 300 400" fill="none" xmlns="http://www.w3.org/2000/svg">
  <rect width="300" height="400" fill="#F5F5F5"/>
  <rect x="20" y="20" width="260" height="360" fill="#22C55E" rx="8"/>
  <rect x="30" y="30" width="240" height="50" fill="#FFFFFF" rx="4"/>
  <rect x="40" y="40" width="100" height="8" fill="#22C55E" rx="2"/>
  <rect x="40" y="54" width="80" height="6" fill="#16A34A" rx="2"/>
  <rect x="30" y="100" width="240" height="250" fill="#FFFFFF" rx="4"/>
  <rect x="40" y="120" width="220" height="4" fill="#E5E5E5" rx="2"/>
  <rect x="40" y="130" width="200" height="4" fill="#E5E5E5" rx="2"/>
  <rect x="40" y="140" width="180" height="4" fill="#E5E5E5" rx="2"/>
  <rect x="40" y="160" width="220" height="4" fill="#E5E5E5" rx="2"/>
  <rect x="40" y="170" width="160" height="4" fill="#E5E5E5" rx="2"/>
  <rect x="115" y="280" width="70" height="40" fill="#22C55E" rx="8"/>
  <text x="150" y="304" fill="white" font-family="Arial" font-size="12" text-anchor="middle">BOOK</text>
</svg> 